<svg preserveAspectRatio="none" width="100%" height="100%" overflow="visible" style="display: block;" viewBox="0 0 27 27" fill="none" xmlns="http://www.w3.org/2000/svg">
<g id="bluetooth">
<circle id="Ellipse 153" cx="13.5" cy="13.5" r="13.5" fill="var(--fill-0, #4F5261)"/>
<path id="Vector" d="M13 21C12.9277 20.9995 12.8562 20.9842 12.79 20.955C12.7032 20.9148 12.6298 20.8506 12.5784 20.77C12.527 20.6893 12.4998 20.5956 12.5 20.5V15.205L9.205 18.5L8.5 17.795L12.295 14L8.5 10.205L9.205 9.5L12.5 12.795V7.5C12.4998 7.40437 12.527 7.31067 12.5784 7.23003C12.6298 7.14938 12.7032 7.08517 12.79 7.045C12.877 7.00495 12.9737 6.99073 13.0685 7.00403C13.1633 7.01732 13.2524 7.05757 13.325 7.12L16.825 10.12C16.8799 10.1669 16.9239 10.2252 16.9542 10.2908C16.9844 10.3564 17 10.4278 17 10.5C17.0031 10.5691 16.9918 10.6382 16.9669 10.7027C16.9419 10.7673 16.9038 10.8259 16.855 10.875L13.705 14L16.855 17.145C16.9013 17.1917 16.938 17.2471 16.9629 17.308C16.9878 17.369 17.0004 17.4342 17 17.5C16.9972 17.5688 16.9802 17.6363 16.9501 17.6983C16.92 17.7602 16.8774 17.8153 16.825 17.86L13.325 20.86C13.2374 20.9447 13.1218 20.9945 13 21ZM13.5 15.205V19.415L15.765 17.47L13.5 15.205ZM13.5 8.585V12.795L15.765 10.53L13.5 8.585Z" fill="var(--fill-0, #FFFFFF)"/>
</g>
</svg>
