<svg width="20" height="38" viewBox="0 0 20 38" fill="none" xmlns="http://www.w3.org/2000/svg">
<g opacity="0.7">
<path opacity="0.5" d="M9.41351 23.7709L8.00001 22.3573C10.182 20.1254 11.4045 17.1286 11.4063 14.0073C11.4082 10.886 10.1893 7.88779 8.01001 5.65324L9.42331 4.23994C11.9781 6.84914 13.408 10.356 13.4061 14.0076C13.4042 17.6593 11.9707 21.1647 9.41331 23.7712L9.41351 23.7709Z" fill="url(#paint0_linear_1567_9903)"/>
<path opacity="0.5" d="M13.6651 -2.50959e-07C17.3439 3.73107 19.4063 8.76026 19.4063 14C19.4063 19.2397 17.3439 24.2689 13.6651 28L13.6426 28L12.2383 26.5957C15.5478 23.2414 17.4042 18.7193 17.4061 14.0072C17.408 9.29505 15.5552 4.7715 12.2483 1.4146L13.6631 -2.51047e-07L13.6651 -2.50959e-07Z" fill="url(#paint1_linear_1567_9903)"/>
<path opacity="0.5" d="M2.94975 20L4.71751 31.6673L16.3848 33.435" stroke="url(#paint2_linear_1567_9903)" stroke-width="1.5" stroke-linecap="round"/>
<path opacity="0.5" d="M2.94975 20L4.71751 31.6673L16.3848 33.435" stroke="url(#paint3_linear_1567_9903)" stroke-width="1.5" stroke-linecap="round"/>
</g>
<defs>
<linearGradient id="paint0_linear_1567_9903" x1="10.7031" y1="23.7712" x2="10.7031" y2="4.23994" gradientUnits="userSpaceOnUse">
<stop stop-color="#0081E3"/>
<stop offset="1" stop-color="#1065A6"/>
</linearGradient>
<linearGradient id="paint1_linear_1567_9903" x1="15.8223" y1="28" x2="15.8223" y2="-1.56663e-07" gradientUnits="userSpaceOnUse">
<stop stop-color="#0081E3"/>
<stop offset="1" stop-color="#1065A6"/>
</linearGradient>
<linearGradient id="paint2_linear_1567_9903" x1="4.71751" y1="31.6673" x2="9.66726" y2="26.7175" gradientUnits="userSpaceOnUse">
<stop stop-color="#0081E3"/>
<stop offset="1" stop-color="#1065A6"/>
</linearGradient>
<linearGradient id="paint3_linear_1567_9903" x1="4.71751" y1="31.6673" x2="9.66726" y2="26.7175" gradientUnits="userSpaceOnUse">
<stop stop-color="#0081E3"/>
<stop offset="1" stop-color="#1065A6"/>
</linearGradient>
</defs>
</svg>
