<svg preserveAspectRatio="none" width="100%" height="100%" overflow="visible" style="display: block;" viewBox="0 0 27 27" fill="none" xmlns="http://www.w3.org/2000/svg">
<g id="bluetooth--off">
<circle id="Ellipse 153" cx="13.5" cy="13.5" r="13.5" fill="var(--fill-0, white)"/>
<path id="Vector" d="M19 19.295L7.705 8L7 8.705L12.295 14L8.5 17.795L9.205 18.5L12.5 15.205V20.5C12.4998 20.5956 12.527 20.6893 12.5784 20.77C12.6298 20.8506 12.7032 20.9148 12.79 20.955C12.8562 20.9842 12.9277 20.9995 13 21C13.1192 21 13.2344 20.9575 13.325 20.88L16.475 18.18L18.295 20L19 19.295ZM13.5 19.415V15.205L15.765 17.47L13.5 19.415ZM13.5 12.375V8.585L15.765 10.53L13.71 12.585L14.415 13.29L16.855 10.855C16.9013 10.8083 16.938 10.7529 16.9629 10.692C16.9878 10.631 17.0004 10.5658 17 10.5C16.9972 10.4312 16.9802 10.3637 16.9501 10.3017C16.92 10.2398 16.8774 10.1847 16.825 10.14L13.325 7.14C13.2524 7.07757 13.1633 7.03732 13.0685 7.02403C12.9737 7.01073 12.877 7.02495 12.79 7.065C12.7062 7.10369 12.6348 7.1648 12.5836 7.24158C12.5324 7.31835 12.5035 7.40779 12.5 7.5V11.375L13.5 12.375Z" fill="var(--fill-0, #DD330D)"/>
</g>
</svg>
