<svg preserveAspectRatio="none" width="100%" height="100%" overflow="visible" style="display: block;" viewBox="0 0 11.4063 28" fill="none" xmlns="http://www.w3.org/2000/svg">
<g id="img_left" opacity="0.7">
<path id="Vector" opacity="0.5" d="M9.99283 23.7709L11.4063 22.3573C9.22439 20.1254 8.00187 17.1286 8 14.0073C7.99813 10.886 9.21706 7.88779 11.3963 5.65324L9.98303 4.23994C7.42829 6.84914 5.99838 10.356 6.00025 14.0076C6.00212 17.6593 7.43562 21.1647 9.99303 23.7712L9.99283 23.7709Z" fill="url(#paint0_linear_0_16)"/>
<path id="Vector_2" opacity="0.5" d="M5.74128 0C2.06243 3.73107 3.82923e-07 8.76026 6.11959e-07 14C8.40996e-07 19.2397 2.06243 24.2689 5.74128 28L5.76378 28L7.16808 26.5957C3.85852 23.2414 2.0021 18.7193 2.00023 14.0072C1.99836 9.29505 3.85118 4.7715 7.15808 1.4146L5.74328 0L5.74128 0Z" fill="url(#paint1_linear_0_16)"/>
</g>
<defs>
<linearGradient id="paint0_linear_0_16" x1="8.70329" y1="23.7712" x2="8.70329" y2="4.23994" gradientUnits="userSpaceOnUse">
<stop stop-color="#0081E3"/>
<stop offset="1" stop-color="#1065A6"/>
</linearGradient>
<linearGradient id="paint1_linear_0_16" x1="3.58404" y1="28" x2="3.58404" y2="9.43834e-08" gradientUnits="userSpaceOnUse">
<stop stop-color="#0081E3"/>
<stop offset="1" stop-color="#1065A6"/>
</linearGradient>
</defs>
</svg>
